<svg data-name="Layer 1" xmlns="http://www.w3.org/2000/svg" viewBox="0 0 447.81 161.21"><defs><clipPath id="a" transform="translate(-1065.81 -153.13)"><path fill="none" d="M1065.77 153.15h186.75v161.19h-186.75z"/></clipPath></defs><g clip-path="url(#a)"><path d="M132.65 156.95a49.86 49.86 0 1150-49.86 50 50 0 01-50 49.86zM8.42 126.73a3.67 3.67 0 01-3.66-3.65V29.5h135.65v24a55.27 55.27 0 00-7.76-.55A54.41 54.41 0 0083.1 84.87h-4.33v4.27h2.62a54 54 0 00.64 37.55zm0-117.33h5.19v4.65h4.29V9.4h9.92v4.65h4.29V9.4h9.92v4.65h4.29V9.4h9.87v4.65h4.29V9.4h9.92v4.65h4.29V9.4h9.92v4.65h4.28V9.4h9.92v4.65h4.38V9.4h9.92v4.65h4.29V9.4h9.91v4.65h4.29V9.4h5.19a3.67 3.67 0 013.67 3.65v12.52H4.76V13.05A3.67 3.67 0 018.42 9.4zm136.75 45V13.05a8.42 8.42 0 00-8.43-8.39h-5.19V0h-4.29v4.66h-9.91V0h-4.29v4.66h-9.87V0H98.9v4.66h-9.92V0H84.7v4.66h-9.92V0h-4.29v4.66h-9.92V0h-4.38v4.66h-9.91V0h-4.29v4.66h-9.92V0h-4.29v4.66h-9.92V0h-4.29v4.66H8.38a8.41 8.41 0 00-8.42 8.39v110a8.42 8.42 0 008.42 8.4h75.81a54.27 54.27 0 1061-77.07" fill="#231f20"/></g><path d="M132.65 66.33a1.22 1.22 0 001.22-1.22v-3a1.23 1.23 0 00-2.45 0v3a1.23 1.23 0 001.23 1.22M132.65 147.87a1.23 1.23 0 00-1.23 1.22v3a1.23 1.23 0 002.45 0v-3a1.22 1.22 0 00-1.22-1.22M177.76 105.87h-3a1.22 1.22 0 000 2.44h3a1.22 1.22 0 100-2.44M90.52 105.87h-3a1.22 1.22 0 000 2.44h3a1.22 1.22 0 100-2.44M171.42 130.07l-2.54-1.56a.7.7 0 00-.73 1.19l2.54 1.55a.61.61 0 00.36.11.7.7 0 00.37-1.29M97.19 84.47l-2.54-1.55a.694.694 0 00-.73 1.18l2.54 1.56a.75.75 0 00.37.11.7.7 0 00.36-1.3M153.45 143.6a.71.71 0 00-1-.28.69.69 0 00-.28.95l1.43 2.61a.69.69 0 00.61.36.72.72 0 00.34-.09.68.68 0 00.27-.94l-1.42-2.61M111.64 67.3a.7.7 0 10-1.22.67l1.43 2.6a.68.68 0 00.61.37.72.72 0 00.34-.09.69.69 0 00.27-.94l-1.43-2.61M96.41 128.51l-2.54 1.56a.7.7 0 00.37 1.29.59.59 0 00.36-.11l2.54-1.55a.68.68 0 00.23-1 .7.7 0 00-1-.23M170.69 82.92l-2.5 1.55a.7.7 0 00-.23 1 .69.69 0 00.59.34.7.7 0 00.37-.11l2.54-1.56a.69.69 0 00.23-.95.7.7 0 00-1-.23M112.8 143.32a.7.7 0 00-.95.28l-1.43 2.61a.69.69 0 00.27.94.72.72 0 00.34.09.68.68 0 00.61-.36l1.43-2.61a.7.7 0 00-.27-.95M154.6 67.02a.71.71 0 00-1 .28l-1.41 2.57a.69.69 0 00.28.94.66.66 0 00.33.09.7.7 0 00.62-.37l1.42-2.6a.69.69 0 00-.27-.95M153.53 94.2l-1.39-2-17.65 12.14a3.79 3.79 0 00-1.84-.48h-.43l-16.54-29-2.12 1.21 16.45 28.85a3.73 3.73 0 106.38 2.64 3.59 3.59 0 00-.28-1.39l17.42-12M20.8 67.79h11.75v-4.28H20.8v4.28M50.12 67.79h11.75v-4.28H50.12v4.28M91.19 63.51H79.44v4.28h11.75v-4.28M20.8 46.41h11.75v-4.26H20.8v4.26M50.12 46.41h11.75v-4.26H50.12v4.26M91.19 42.15H79.44v4.26h11.75v-4.26M20.8 110.55h11.75v-4.27H20.8v4.27M50.12 110.55h11.75v-4.27H50.12v4.27M20.8 89.18h11.75v-4.31H20.8v4.27M50.12 89.18h11.75v-4.31H50.12v4.27M120.5 42.15h-11.75v4.26h11.75v-4.26" fill="#231f20"/><path d="M250.7 64.29v90.85h-17.4v-52.79l-12 24.84-12.34-25.32v53.29h-17.41V64.29h18.37l11.27 23.18 11.16-23.18zm24 90.85h-18l22.68-90.73v-.12h8.87l.12.12h3.82l.26-.12h8.88l17.4 90.85H301.1l-3.49-18h-18.42zm8.76-35.39h10.81l-4.68-24.61zm74-55.34a19.52 19.52 0 017.85 1.58 20.14 20.14 0 016.42 4.31 19.89 19.89 0 015.88 14.27v50.42a20 20 0 01-1.55 7.79 18.91 18.91 0 01-4.33 6.41 22 22 0 01-6.42 4.34 19.21 19.21 0 01-7.85 1.61H324.7V64.41zm2.9 20.16a2.89 2.89 0 00-2.9-2.87h-15.27v56h15.35a3 3 0 002-.76 2.63 2.63 0 00.85-2zm41.25 70.57h-18l22.68-90.73v-.12h8.9l.11.12h3.89l.26-.12h8.88l17.41 90.85h-17.65l-3.49-18h-18.48zm8.76-35.39h10.82l-4.68-24.61z" fill="none" stroke="#000" stroke-miterlimit="3" stroke-width="3.45"/></svg>