<svg xmlns="http://www.w3.org/2000/svg" width="1080" height="1080" viewBox="0 0 810 810" version="1.2"><defs><clipPath id="a"><path d="M0 54.676h810v700.36H0zm0 0"/></clipPath></defs><g clip-path="url(#a)"><path d="M574.719 736.496c-119.5 0-216.715-97.18-216.715-216.629 0-119.445 97.215-216.625 216.715-216.625 119.492 0 216.718 97.18 216.718 216.625 0 119.45-97.226 216.63-216.718 216.63zM36.652 605.226c-8.742 0-15.859-7.113-15.859-15.863V182.766H608.32V287.09a236.012 236.012 0 00-33.601-2.406c-95.41 0-177.727 57.058-214.621 138.824h-18.739v18.562h11.325c-8.567 24.368-13.25 50.543-13.25 77.797 0 30.094 5.691 58.88 16.046 85.36zm0-509.785h22.47v20.204h18.57V95.44h42.968v20.204h18.57V95.44h42.97v20.204h18.57V95.44h42.96v20.204h18.57V95.44h42.973v20.204h18.567V95.44h42.973v20.204h18.566V95.44h42.965v20.204h18.566V95.44h42.973v20.204h18.566V95.44h42.965v20.204h18.566V95.44h22.477c8.746 0 15.863 7.114 15.863 15.856v54.383H20.793v-54.383c0-8.742 7.117-15.856 15.86-15.856zM628.95 290.988V111.297c0-20.117-16.367-36.48-36.492-36.48H569.98V54.612h-18.566v20.203H508.45V54.613h-18.566v20.203H446.91V54.613h-18.566v20.203h-42.965V54.613h-18.567v20.203H323.84V54.613h-18.567v20.203h-42.972V54.613h-18.57v20.203H200.77V54.613H182.2v20.203h-42.97V54.613h-18.57v20.203H77.691V54.613h-18.57v20.203H36.652C16.532 74.816.16 91.18.16 111.296v478.067c0 20.117 16.371 36.485 36.492 36.485h328.063c38.836 76.59 118.39 129.21 210.004 129.21 129.738 0 235.289-105.507 235.289-235.19 0-111.036-77.38-204.333-181.059-228.88" fill="#231f20"/></g><path d="M574.719 342.766a5.296 5.296 0 005.297-5.293v-12.914a5.3 5.3 0 00-5.297-5.301 5.296 5.296 0 00-5.293 5.3v12.915a5.292 5.292 0 005.293 5.293M574.719 696.973a5.292 5.292 0 00-5.293 5.293v12.914a5.29 5.29 0 005.293 5.293 5.293 5.293 0 005.297-5.293v-12.914a5.296 5.296 0 00-5.297-5.293M770.105 514.574h-12.918a5.292 5.292 0 100 10.582h12.918c2.926 0 5.305-2.367 5.305-5.289 0-2.926-2.379-5.293-5.305-5.293M392.254 514.574h-12.926a5.292 5.292 0 100 10.582h12.926a5.289 5.289 0 005.293-5.289 5.29 5.29 0 00-5.293-5.293M742.664 619.734l-11-6.773a3.023 3.023 0 10-3.176 5.144l11 6.778a3.033 3.033 0 004.168-.992 3.014 3.014 0 00-.992-4.157M420.945 421.625l-11-6.77a3.023 3.023 0 10-3.168 5.148l10.993 6.778a3.028 3.028 0 004.164-.992 3.022 3.022 0 00-.989-4.164M664.813 678.512a3.02 3.02 0 00-4.11-1.203 3.01 3.01 0 00-1.2 4.101l6.188 11.336a3.028 3.028 0 002.66 1.578 3.027 3.027 0 002.652-4.48l-6.19-11.332M483.75 346.984a3.033 3.033 0 00-4.11-1.199 3.014 3.014 0 00-1.202 4.102l6.19 11.336a3.016 3.016 0 004.102 1.207 3.025 3.025 0 001.207-4.102l-6.187-11.344M417.77 612.96l-10.993 6.774a3.014 3.014 0 00-.992 4.157 3.028 3.028 0 002.578 1.441c.54 0 1.09-.144 1.582-.45l11-6.777a3.012 3.012 0 00.989-4.156 3.02 3.02 0 00-4.164-.988M739.488 414.855l-11 6.77a3.027 3.027 0 00-.984 4.164 3.038 3.038 0 002.578 1.441c.543 0 1.09-.144 1.582-.449l11-6.777a3.023 3.023 0 00.992-4.164 3.036 3.036 0 00-4.168-.985M488.73 677.309a3.013 3.013 0 00-4.101 1.203l-6.192 11.332a3.024 3.024 0 002.653 4.48c1.07 0 2.11-.574 2.66-1.578l6.188-11.336a3.026 3.026 0 00-1.208-4.101M669.793 345.785a3.017 3.017 0 00-4.102 1.211l-6.187 11.332a3.009 3.009 0 001.2 4.102 3.028 3.028 0 004.11-1.207l6.19-11.336a3.017 3.017 0 00-1.211-4.102M665.168 463.867l-6.02-8.715-76.433 52.758a16.186 16.186 0 00-7.996-2.117c-.63 0-1.239.039-1.844.113l-71.629-126.004-9.21 5.227L563.3 510.504a16.135 16.135 0 00-4.77 11.473c0 8.933 7.25 16.175 16.188 16.175 8.937 0 16.191-7.242 16.191-16.175 0-2.137-.426-4.172-1.176-6.036l75.434-52.074M90.254 349.113h50.894v-18.562H90.254v18.562M217.234 349.113h50.895v-18.562h-50.895v18.562M395.105 330.55h-50.89v18.563h50.89v-18.562M90.254 256.262h50.894v-18.563H90.254v18.563M217.234 256.262h50.895v-18.563h-50.895v18.563M395.105 237.7h-50.89v18.562h50.89v-18.563M90.254 534.93h50.894V516.37H90.254v18.559M217.234 534.93h50.895V516.37h-50.895v18.559M90.254 442.07h50.894v-18.562H90.254v18.562M217.234 442.07h50.895v-18.562h-50.895v18.562M522.086 237.7H471.19v18.562h50.895v-18.563" fill="#231f20"/></svg>